<?xml version="1.0" encoding="utf-8"?>
<!-- Generator: Adobe Illustrator 22.0.0, SVG Export Plug-In . SVG Version: 6.00 Build 0)  -->
<svg version="1.1" id="图层_1" xmlns="http://www.w3.org/2000/svg" xmlns:xlink="http://www.w3.org/1999/xlink" x="0px" y="0px"
	 viewBox="0 0 1366 362" style="enable-background:new 0 0 1366 362;" xml:space="preserve">
<style type="text/css">
	.st0{fill:#333333;}
	.st1{fill:url(#SVGID_1_);}
	.st2{fill:url(#SVGID_2_);}
	.st3{fill:url(#SVGID_3_);}
	.st4{fill:url(#SVGID_4_);}
	.st5{fill:url(#SVGID_5_);}
</style>
<g>
	<g>
		<path class="st0" d="M448.5,107.3h26.1v97.6h0.9c5.3-7.8,10.9-14.9,16-21.5l61.8-76h32.4l-73.2,86l79,116.4h-31L494,210.4
			l-19.4,22.2v77.1h-26.1V107.3z"/>
		<path class="st0" d="M647.1,246.1l-20.9,63.6h-27.1l68.8-202.4h31.4l69.1,202.4h-28l-21.7-63.6H647.1z M713.5,225.6l-20-58.2
			c-4.4-13.2-7.4-25.3-10.4-36.9h-0.7c-2.9,11.8-6.1,24.2-10,36.6l-19.9,58.6H713.5z"/>
		<path class="st0" d="M824.3,107.3v202.4h-26.3V107.3H824.3z"/>
		<path class="st0" d="M902.9,309.7l-51.3-202.4h27.7l24.1,102.4c5.8,25.3,11.2,50.4,14.8,70h0.7c3.3-20.1,9.6-44.2,16.5-70.3
			l27.2-102.1h27.1l24.7,102.6c5.6,24.2,11.1,48.1,14.2,69.4h0.7c4-22.2,9.7-44.7,16-69.9l26.8-102h26.8l-57.4,202.4h-27.3
			l-25.5-105.3c-6.4-26.1-10.6-45.7-13.4-66.2h-0.6c-3.3,20.3-8.1,40-15.6,66.2l-28.6,105.3H902.9z"/>
		<path class="st0" d="M1150.1,107.3v119.9c0,45.1,20,64.3,47.3,64.3c29.8,0,49.2-19.8,49.2-64.3V107.3h26.3v118.1
			c0,62.2-32.7,87.6-76.6,87.6c-41.3,0-72.5-23.6-72.5-86.5V107.3H1150.1z"/>
	</g>
</g>
<g>
	<linearGradient id="SVGID_1_" gradientUnits="userSpaceOnUse" x1="811.1843" y1="56.2693" x2="811.1843" y2="88.1822">
		<stop  offset="0" style="stop-color:#FF1D25"/>
		<stop  offset="1" style="stop-color:#FF931E"/>
	</linearGradient>
	<path class="st1" d="M798.1,67.6v0.3c0,7.2,5.9,13.1,13.1,13.1h0c7.2,0,13.1-5.9,13.1-13.1v-0.3c0-7.2-5.9-13.1-13.1-13.1h0
		C804,54.5,798.1,60.4,798.1,67.6z"/>
</g>
<g>
	<g>
		<linearGradient id="SVGID_2_" gradientUnits="userSpaceOnUse" x1="147.077" y1="321.5988" x2="147.077" y2="88.6669">
			<stop  offset="0" style="stop-color:#FF931E"/>
			<stop  offset="0.6828" style="stop-color:#FF3F23"/>
			<stop  offset="1" style="stop-color:#FF1D25"/>
		</linearGradient>
		<path class="st2" d="M155.4,155l-45.5,137.3c-3.3,9.8,4.1,20,14.4,20h1.4c6.6,0,12.4-4.3,14.5-10.5l44.2-137.3
			c3.2-9.8-4.2-19.8-14.5-19.8h0C163.3,144.6,157.5,148.8,155.4,155z"/>
		<linearGradient id="SVGID_3_" gradientUnits="userSpaceOnUse" x1="231.7741" y1="321.5988" x2="231.7741" y2="88.6669">
			<stop  offset="0" style="stop-color:#FF931E"/>
			<stop  offset="0.6828" style="stop-color:#FF3F23"/>
			<stop  offset="1" style="stop-color:#FF1D25"/>
		</linearGradient>
		<path class="st3" d="M293.4,100L293.4,100c-2.1-6.1-7.9-10.1-14.3-10.1h-94.6c-6.4,0-12.1,4.1-14.3,10.1l0,0
			c-3.5,9.8,3.8,20.2,14.3,20.2h94.6C289.5,120.2,296.8,109.9,293.4,100z"/>
		<linearGradient id="SVGID_4_" gradientUnits="userSpaceOnUse" x1="316.4712" y1="321.5988" x2="316.4712" y2="88.6669">
			<stop  offset="0" style="stop-color:#FF931E"/>
			<stop  offset="0.6828" style="stop-color:#FF3F23"/>
			<stop  offset="1" style="stop-color:#FF1D25"/>
		</linearGradient>
		<path class="st4" d="M279.2,164.5l44.2,137.3c2,6.3,7.9,10.5,14.5,10.5h1.4c10.4,0,17.7-10.1,14.4-20L308.1,155
			c-2.1-6.2-7.9-10.4-14.4-10.4h0C283.4,144.6,276.1,154.7,279.2,164.5z"/>
		<linearGradient id="SVGID_5_" gradientUnits="userSpaceOnUse" x1="231.7741" y1="330.9132" x2="231.7741" y2="97.9813">
			<stop  offset="0" style="stop-color:#FF931E"/>
			<stop  offset="0.6828" style="stop-color:#FF3F23"/>
			<stop  offset="1" style="stop-color:#FF1D25"/>
		</linearGradient>
		<path class="st5" d="M375.5,242.4H88.1c-6.8,0-12.3-5.5-12.3-12.3v-6.8c0-6.8,5.5-12.3,12.3-12.3h287.4c6.8,0,12.3,5.5,12.3,12.3
			v6.8C387.8,236.9,382.3,242.4,375.5,242.4z"/>
	</g>
</g>
</svg>
