<?xml version="1.0" encoding="utf-8"?>
<!-- Generator: Adobe Illustrator 22.0.0, SVG Export Plug-In . SVG Version: 6.00 Build 0)  -->
<svg version="1.1"
	 id="NexT" xmlns:cc="http://creativecommons.org/ns#" xmlns:dc="http://purl.org/dc/elements/1.1/" xmlns:rdf="http://www.w3.org/1999/02/22-rdf-syntax-ns#" xmlns:svg="http://www.w3.org/2000/svg"
	 xmlns="http://www.w3.org/2000/svg" xmlns:xlink="http://www.w3.org/1999/xlink" x="0px" y="0px" viewBox="0 0 512 512"
	 style="enable-background:new 0 0 512 512;" xml:space="preserve">
<style type="text/css">
	.st0{fill:url(#SVGID_1_);}
	.st1{fill:url(#SVGID_2_);}
	.st2{fill:url(#SVGID_3_);}
	.st3{fill:url(#SVGID_4_);}
</style>
<g>
	<g>
		<linearGradient id="SVGID_1_" gradientUnits="userSpaceOnUse" x1="141.9961" y1="418.2153" x2="141.9961" y2="104.6845">
			<stop  offset="0" style="stop-color:#FF931E"/>
			<stop  offset="0.6828" style="stop-color:#FF3F23"/>
			<stop  offset="1" style="stop-color:#FF1D25"/>
		</linearGradient>
		<path class="st0" d="M153.3,194L91.9,378.8c-4.4,13.2,5.5,26.9,19.4,26.9h1.8c8.9,0,16.7-5.7,19.5-14.2l59.5-184.8
			c4.2-13.2-5.6-26.7-19.5-26.7h0C163.8,180,156,185.6,153.3,194z"/>
		<linearGradient id="SVGID_2_" gradientUnits="userSpaceOnUse" x1="256" y1="418.2153" x2="256" y2="104.6845">
			<stop  offset="0" style="stop-color:#FF931E"/>
			<stop  offset="0.6828" style="stop-color:#FF3F23"/>
			<stop  offset="1" style="stop-color:#FF1D25"/>
		</linearGradient>
		<path class="st1" d="M338.9,120L338.9,120c-2.9-8.2-10.6-13.6-19.2-13.6H192.3c-8.6,0-16.3,5.5-19.2,13.6l0,0
			c-4.7,13.3,5.2,27.1,19.2,27.1h127.4C333.7,147.1,343.6,133.2,338.9,120z"/>
		<linearGradient id="SVGID_3_" gradientUnits="userSpaceOnUse" x1="370.0039" y1="418.2153" x2="370.0039" y2="104.6845">
			<stop  offset="0" style="stop-color:#FF931E"/>
			<stop  offset="0.6828" style="stop-color:#FF3F23"/>
			<stop  offset="1" style="stop-color:#FF1D25"/>
		</linearGradient>
		<path class="st2" d="M319.9,206.7l59.5,184.8c2.7,8.4,10.6,14.2,19.5,14.2h1.8c13.9,0,23.8-13.6,19.4-26.9L358.7,194
			c-2.8-8.4-10.6-14-19.4-14h0C325.5,180,315.6,193.5,319.9,206.7z"/>
		<linearGradient id="SVGID_4_" gradientUnits="userSpaceOnUse" x1="256" y1="430.7526" x2="256" y2="117.2218">
			<stop  offset="0" style="stop-color:#FF931E"/>
			<stop  offset="0.6828" style="stop-color:#FF3F23"/>
			<stop  offset="1" style="stop-color:#FF1D25"/>
		</linearGradient>
		<path class="st3" d="M446.3,311.6H65.7c-10.9,0-19.7-8.8-19.7-19.7V289c0-10.9,8.8-19.7,19.7-19.7h380.6
			c10.9,0,19.7,8.8,19.7,19.7v2.9C466,302.8,457.2,311.6,446.3,311.6z"/>
	</g>
</g>
</svg>
