<?xml version="1.0" encoding="utf-8"?>
<!-- Generator: Adobe Illustrator 22.0.0, SVG Export Plug-In . SVG Version: 6.00 Build 0)  -->
<svg version="1.1"
	 id="NexT" xmlns:cc="http://creativecommons.org/ns#" xmlns:dc="http://purl.org/dc/elements/1.1/" xmlns:rdf="http://www.w3.org/1999/02/22-rdf-syntax-ns#" xmlns:svg="http://www.w3.org/2000/svg"
	 xmlns="http://www.w3.org/2000/svg" xmlns:xlink="http://www.w3.org/1999/xlink" x="0px" y="0px" viewBox="0 0 512 512"
	 style="enable-background:new 0 0 512 512;" xml:space="preserve">
<style type="text/css">
	.st0{fill:#333333;}
	.st1{fill:url(#SVGID_1_);}
	.st2{fill:url(#SVGID_2_);}
	.st3{fill:url(#SVGID_3_);}
	.st4{fill:url(#SVGID_4_);}
</style>
<rect y="-0.1" class="st0" width="512.2" height="512.2"/>
<g>
	<g>
		<linearGradient id="SVGID_1_" gradientUnits="userSpaceOnUse" x1="214.9423" y1="280.4238" x2="424.4471" y2="280.4238">
			<stop  offset="0" style="stop-color:#FF6E1E"/>
			<stop  offset="0.5517" style="stop-color:#FF3F22"/>
			<stop  offset="1" style="stop-color:#FF1D25"/>
		</linearGradient>
		<path class="st1" d="M340.8,354.6c0-0.1,0-0.2,0-0.2c0-40.8-33.1-73.9-73.9-73.9s-73.9-33.1-73.9-73.9c0-0.1,0-0.2,0-0.2
			c0.1-40.7,33.2-74.7,73.9-74.7h0c82.2,0,148.8,66.7,148.8,148.9c0,81.6-65.6,147.8-146.9,148.8l0-1
			C308.6,427.3,340.6,394.7,340.8,354.6z"/>
		<linearGradient id="SVGID_2_" gradientUnits="userSpaceOnUse" x1="305.5457" y1="406.5767" x2="147.0902" y2="155.9289">
			<stop  offset="0" style="stop-color:#FF1D25"/>
			<stop  offset="0.2726" style="stop-color:#FF3723;stop-opacity:0.7274"/>
			<stop  offset="0.7515" style="stop-color:#FF5F1F;stop-opacity:0.2485"/>
			<stop  offset="1" style="stop-color:#FF6E1E;stop-opacity:0"/>
		</linearGradient>
		<path class="st2" d="M268.7,429.3L268.7,429.3c-0.6,0-1.3,0-1.9,0c-82.2,0-148.9-66.7-148.9-148.9s66.7-148.9,148.9-148.9h0h0
			c-40.8,0-73.8,33.9-73.9,74.7c0,0.1,0,0.2,0,0.2c0,40.8,33.1,73.9,73.9,73.9s73.9,33.1,73.9,73.9c0,0.1,0,0.2,0,0.2
			C340.6,394.7,308.6,428.3,268.7,429.3z"/>
	</g>
	<g>
		<radialGradient id="SVGID_3_" cx="269.6843" cy="133.4946" r="117.6736" gradientUnits="userSpaceOnUse">
			<stop  offset="0" style="stop-color:#2DB239"/>
			<stop  offset="0.1356" style="stop-color:#33B539;stop-opacity:0.8644"/>
			<stop  offset="0.3174" style="stop-color:#44BF3A;stop-opacity:0.6826"/>
			<stop  offset="0.5254" style="stop-color:#60CE3B;stop-opacity:0.4746"/>
			<stop  offset="0.7529" style="stop-color:#87E33D;stop-opacity:0.2471"/>
			<stop  offset="0.9937" style="stop-color:#B9FE3F;stop-opacity:6.272376e-03"/>
			<stop  offset="1" style="stop-color:#BAFF3F;stop-opacity:0"/>
		</radialGradient>
		<path class="st3" d="M267,132c38.4,9.5,80.8-1.1,110.2-31.6C336.1,90.2,294.6,103.6,267,132z"/>
		<radialGradient id="SVGID_4_" cx="269.6843" cy="133.4946" r="117.6736" gradientUnits="userSpaceOnUse">
			<stop  offset="0" style="stop-color:#2DB239"/>
			<stop  offset="0.1356" style="stop-color:#33B539;stop-opacity:0.8644"/>
			<stop  offset="0.3174" style="stop-color:#44BF3A;stop-opacity:0.6826"/>
			<stop  offset="0.5254" style="stop-color:#60CE3B;stop-opacity:0.4746"/>
			<stop  offset="0.7529" style="stop-color:#87E33D;stop-opacity:0.2471"/>
			<stop  offset="0.9937" style="stop-color:#B9FE3F;stop-opacity:6.272376e-03"/>
			<stop  offset="1" style="stop-color:#BAFF3F;stop-opacity:0"/>
		</radialGradient>
		<path class="st4" d="M266.6,132c-38.4,9.5-80.8-1.1-110.2-31.6C197.5,90.2,239.1,103.6,266.6,132z"/>
	</g>
</g>
</svg>
