
<!-- Generator: Adobe Illustrator 22.0.0, SVG Export Plug-In . SVG Version: 6.00 Build 0)  -->
<svg 
	 xmlns="http://www.w3.org/2000/svg" version="1.1" width="949" height="256" viewbox="0 0 949 256">
<g>
	<g>
		<linearGradient id="SVGID_1_" gradientUnits="userSpaceOnUse" x1="209.5967" y1="229.9854" x2="209.5967" y2="31.9827">
			<stop  offset="0" style="stop-color:#FF931E"/>
			<stop  offset="0.1004" style="stop-color:#FF7B1F"/>
			<stop  offset="0.2706" style="stop-color:#FF5921"/>
			<stop  offset="0.4447" style="stop-color:#FF3F23"/>
			<stop  offset="0.622" style="stop-color:#FF2C24"/>
			<stop  offset="0.8045" style="stop-color:#FF2125"/>
			<stop  offset="1" style="stop-color:#FF1D25"/>
		</linearGradient>
		<polygon fill="url(#SVGID_1_)" points="241.3,168.8 233.3,148.8 177.9,148.8 188.3,168.8 		"/>
		<linearGradient id="SVGID_2_" gradientUnits="userSpaceOnUse" x1="36.7219" y1="229.9854" x2="36.7219" y2="31.9827">
			<stop  offset="0" style="stop-color:#FF931E"/>
			<stop  offset="0.1004" style="stop-color:#FF7B1F"/>
			<stop  offset="0.2706" style="stop-color:#FF5921"/>
			<stop  offset="0.4447" style="stop-color:#FF3F23"/>
			<stop  offset="0.622" style="stop-color:#FF2C24"/>
			<stop  offset="0.8045" style="stop-color:#FF2125"/>
			<stop  offset="1" style="stop-color:#FF1D25"/>
		</linearGradient>
		<polygon fill="url(#SVGID_2_)" points="13,148.8 5,168.8 58,168.8 68.4,148.8 		"/>
		<linearGradient id="SVGID_3_" gradientUnits="userSpaceOnUse" x1="123.1589" y1="229.9854" x2="123.1589" y2="31.9827">
			<stop  offset="0" style="stop-color:#FF931E"/>
			<stop  offset="0.1004" style="stop-color:#FF7B1F"/>
			<stop  offset="0.2706" style="stop-color:#FF5921"/>
			<stop  offset="0.4447" style="stop-color:#FF3F23"/>
			<stop  offset="0.622" style="stop-color:#FF2C24"/>
			<stop  offset="0.8045" style="stop-color:#FF2125"/>
			<stop  offset="1" style="stop-color:#FF1D25"/>
		</linearGradient>
		<polygon fill="url(#SVGID_3_)" points="107.1,148.8 96.6,168.8 149.7,168.8 139.3,148.8 		"/>
		<g>
			<g>
				<linearGradient id="SVGID_4_" gradientUnits="userSpaceOnUse" x1="123.1589" y1="229.9854" x2="123.1589" y2="31.9827">
					<stop  offset="0" style="stop-color:#FF931E"/>
					<stop  offset="0.1004" style="stop-color:#FF7B1F"/>
					<stop  offset="0.2706" style="stop-color:#FF5921"/>
					<stop  offset="0.4447" style="stop-color:#FF3F23"/>
					<stop  offset="0.622" style="stop-color:#FF2C24"/>
					<stop  offset="0.8045" style="stop-color:#FF2125"/>
					<stop  offset="1" style="stop-color:#FF1D25"/>
				</linearGradient>
				<path fill="url(#SVGID_4_)" d="M123.2,74.9c-54.9,0-90.2-16.5-102.4-26.2L13,42.4L33.3,33c7.6,6.1,38.5,21.8,89.9,21.8
					S205.4,39.1,213,33l20.3,9.4l-7.8,6.3C213.4,58.4,178.1,74.9,123.2,74.9z"/>
			</g>
		</g>
		<linearGradient id="SVGID_5_" gradientUnits="userSpaceOnUse" x1="123.1599" y1="229.9854" x2="123.1599" y2="31.9827">
			<stop  offset="0" style="stop-color:#FF931E"/>
			<stop  offset="0.1004" style="stop-color:#FF7B1F"/>
			<stop  offset="0.2706" style="stop-color:#FF5921"/>
			<stop  offset="0.4447" style="stop-color:#FF3F23"/>
			<stop  offset="0.622" style="stop-color:#FF2C24"/>
			<stop  offset="0.8045" style="stop-color:#FF2125"/>
			<stop  offset="1" style="stop-color:#FF1D25"/>
		</linearGradient>
		<path fill="url(#SVGID_5_)" d="M180.3,168.8l-10.4-20l-33.6-64.5c-2.6-4.9-7.6-7.9-13.1-7.9c-5.5,0-10.5,3-13.1,7.9l-33.6,64.5
			l-10.4,20l-30.4,58.3h22.6l30.4-58.3l10.4-20l24.1-46.2l24.1,46.2l10.4,20l30.4,58.3h22.6L180.3,168.8z"/>
	</g>
	<g>
		<path fill="#333333" d="M298.9,68.1h20.5v76.5h0.7c4.2-6.2,8.6-11.7,12.5-16.9L381,68.1h25.4l-57.4,67.4l61.9,91.2h-24.3
			l-52.1-77.8l-15.2,17.4v60.4h-20.5V68.1z"/>
		<path fill="#333333" d="M454.5,176.8l-16.4,49.9h-21.2l53.9-158.6h24.6l54.2,158.6h-21.9l-17-49.9H454.5z M506.6,160.8l-15.7-45.6
			c-3.4-10.4-5.8-19.8-8.2-28.9h-0.6c-2.3,9.3-4.7,19-7.9,28.7l-15.6,45.9H506.6z"/>
		<path fill="#333333" d="M593.5,68.1v158.6h-20.6V68.1H593.5z"/>
		<path fill="#333333" d="M655,226.7L614.8,68.1h21.7l18.9,80.3c4.6,19.8,8.8,39.5,11.6,54.8h0.6c2.6-15.7,7.6-34.7,12.9-55.1
			l21.3-80H723l19.4,80.4c4.4,19,8.7,37.7,11.1,54.4h0.5c3.2-17.4,7.6-35.1,12.5-54.8l21-80h21l-45,158.6h-21.4l-20-82.5
			c-5-20.4-8.3-35.8-10.5-51.9h-0.5c-2.6,15.9-6.3,31.3-12.2,51.9l-22.4,82.6H655z"/>
		<path fill="#333333" d="M848.7,68.1v94c0,35.4,15.7,50.4,37.1,50.4c23.3,0,38.6-15.5,38.6-50.4v-94H945v92.5
			c0,48.8-25.6,68.7-60,68.7c-32.4,0-56.8-18.5-56.8-67.8V68.1H848.7z"/>
	</g>
	<g>
		<linearGradient id="SVGID_6_" gradientUnits="userSpaceOnUse" x1="583.1526" y1="28.0952" x2="583.1526" y2="53.1066">
			<stop  offset="0" style="stop-color:#FF1D25"/>
			<stop  offset="1" style="stop-color:#FF931E"/>
		</linearGradient>
		<rect x="572.9" y="26.7" fill="url(#SVGID_6_)" width="20.5" height="20.7"/>
	</g>
</g>
</svg>
